<mxfile host="Electron" agent="Mozilla/5.0 (Macintosh; Intel Mac OS X 10_15_7) AppleWebKit/537.36 (KHTML, like Gecko) draw.io/26.2.15 Chrome/134.0.6998.205 Electron/35.2.1 Safari/537.36" version="26.2.15">
  <diagram name="Page-1" id="0GCPkOtHzfW7Qf8atSdp">
    <mxGraphModel dx="1298" dy="952" grid="1" gridSize="10" guides="1" tooltips="1" connect="1" arrows="1" fold="1" page="1" pageScale="1" pageWidth="1600" pageHeight="900" math="0" shadow="0">
      <root>
        <mxCell id="0" />
        <mxCell id="1" parent="0" />
        <mxCell id="65_ayxHNTe4NkhCTm-xJ-5" style="edgeStyle=orthogonalEdgeStyle;rounded=0;orthogonalLoop=1;jettySize=auto;html=1;exitX=0.5;exitY=1;exitDx=0;exitDy=0;exitPerimeter=0;entryX=0.5;entryY=0;entryDx=0;entryDy=0;" parent="1" source="65_ayxHNTe4NkhCTm-xJ-6" target="6q-QiFSBwagRmlatzJIb-2" edge="1">
          <mxGeometry relative="1" as="geometry">
            <mxPoint x="335" y="160" as="sourcePoint" />
          </mxGeometry>
        </mxCell>
        <mxCell id="6q-QiFSBwagRmlatzJIb-9" style="edgeStyle=orthogonalEdgeStyle;rounded=0;orthogonalLoop=1;jettySize=auto;html=1;exitX=1;exitY=0.5;exitDx=0;exitDy=0;entryX=0;entryY=0.5;entryDx=0;entryDy=0;" edge="1" parent="1" source="65_ayxHNTe4NkhCTm-xJ-2" target="65_ayxHNTe4NkhCTm-xJ-16">
          <mxGeometry relative="1" as="geometry" />
        </mxCell>
        <mxCell id="65_ayxHNTe4NkhCTm-xJ-6" value="" style="sketch=0;aspect=fixed;pointerEvents=1;shadow=0;dashed=0;html=1;strokeColor=none;labelPosition=center;verticalLabelPosition=bottom;verticalAlign=top;align=center;fillColor=#00188D;shape=mxgraph.mscae.enterprise.application" parent="1" vertex="1">
          <mxGeometry x="298" y="155" width="50" height="34" as="geometry" />
        </mxCell>
        <mxCell id="65_ayxHNTe4NkhCTm-xJ-11" style="edgeStyle=orthogonalEdgeStyle;rounded=0;orthogonalLoop=1;jettySize=auto;html=1;exitX=0.16;exitY=0.55;exitDx=0;exitDy=0;exitPerimeter=0;entryX=1;entryY=0.5;entryDx=0;entryDy=0;entryPerimeter=0;" parent="1" source="65_ayxHNTe4NkhCTm-xJ-9" target="65_ayxHNTe4NkhCTm-xJ-6" edge="1">
          <mxGeometry relative="1" as="geometry" />
        </mxCell>
        <mxCell id="6q-QiFSBwagRmlatzJIb-3" style="edgeStyle=orthogonalEdgeStyle;rounded=0;orthogonalLoop=1;jettySize=auto;html=1;exitX=0.5;exitY=1;exitDx=0;exitDy=0;entryX=0.5;entryY=0;entryDx=0;entryDy=0;" edge="1" parent="1" source="6q-QiFSBwagRmlatzJIb-2" target="65_ayxHNTe4NkhCTm-xJ-2">
          <mxGeometry relative="1" as="geometry" />
        </mxCell>
        <mxCell id="6q-QiFSBwagRmlatzJIb-2" value="TornadoVM&amp;nbsp;&lt;div&gt;API&lt;/div&gt;" style="rounded=1;whiteSpace=wrap;html=1;" vertex="1" parent="1">
          <mxGeometry x="263" y="240" width="120" height="60" as="geometry" />
        </mxCell>
        <mxCell id="6q-QiFSBwagRmlatzJIb-10" value="Task Graph" style="image;aspect=fixed;html=1;points=[];align=center;fontSize=12;image=img/lib/azure2/other/Defender_Relay.svg;" vertex="1" parent="1">
          <mxGeometry x="430" y="256.4" width="68" height="27.200000000000003" as="geometry" />
        </mxCell>
        <mxCell id="6q-QiFSBwagRmlatzJIb-11" style="edgeStyle=orthogonalEdgeStyle;rounded=0;orthogonalLoop=1;jettySize=auto;html=1;exitX=1;exitY=0.5;exitDx=0;exitDy=0;entryX=-0.029;entryY=0.5;entryDx=0;entryDy=0;entryPerimeter=0;" edge="1" parent="1" source="6q-QiFSBwagRmlatzJIb-2" target="6q-QiFSBwagRmlatzJIb-10">
          <mxGeometry relative="1" as="geometry" />
        </mxCell>
        <mxCell id="6q-QiFSBwagRmlatzJIb-13" value="" style="group" vertex="1" connectable="0" parent="1">
          <mxGeometry x="650" y="66.5" width="430" height="193.5" as="geometry" />
        </mxCell>
        <mxCell id="65_ayxHNTe4NkhCTm-xJ-9" value="" style="ellipse;shape=cloud;whiteSpace=wrap;html=1;" parent="6q-QiFSBwagRmlatzJIb-13" vertex="1">
          <mxGeometry width="430" height="193.5" as="geometry" />
        </mxCell>
        <mxCell id="6q-QiFSBwagRmlatzJIb-12" value="" style="group" vertex="1" connectable="0" parent="6q-QiFSBwagRmlatzJIb-13">
          <mxGeometry x="78" y="38.92" width="293" height="124.58" as="geometry" />
        </mxCell>
        <mxCell id="65_ayxHNTe4NkhCTm-xJ-7" value="" style="dashed=0;outlineConnect=0;html=1;align=center;labelPosition=center;verticalLabelPosition=bottom;verticalAlign=top;shape=mxgraph.weblogos.java;aspect=fixed;" parent="6q-QiFSBwagRmlatzJIb-12" vertex="1">
          <mxGeometry y="16.58" width="46.57" height="88" as="geometry" />
        </mxCell>
        <mxCell id="65_ayxHNTe4NkhCTm-xJ-12" value="" style="shape=image;verticalLabelPosition=bottom;labelBackgroundColor=default;verticalAlign=top;aspect=fixed;imageAspect=0;image=https://www.r-project.org/logo/Rlogo.png;" parent="6q-QiFSBwagRmlatzJIb-12" vertex="1">
          <mxGeometry x="62" width="76.35" height="59.16" as="geometry" />
        </mxCell>
        <mxCell id="65_ayxHNTe4NkhCTm-xJ-13" value="" style="shape=image;verticalLabelPosition=bottom;labelBackgroundColor=default;verticalAlign=top;aspect=fixed;imageAspect=0;image=https://www.python.org/static/community_logos/python-logo-master-v3-TM.png;" parent="6q-QiFSBwagRmlatzJIb-12" vertex="1">
          <mxGeometry x="152" y="12.579999999999998" width="141" height="47.63" as="geometry" />
        </mxCell>
        <mxCell id="65_ayxHNTe4NkhCTm-xJ-14" value="" style="shape=image;verticalLabelPosition=bottom;labelBackgroundColor=default;verticalAlign=top;aspect=fixed;imageAspect=0;image=https://upload.wikimedia.org/wikipedia/commons/thumb/6/6a/JavaScript-logo.png/960px-JavaScript-logo.png;" parent="6q-QiFSBwagRmlatzJIb-12" vertex="1">
          <mxGeometry x="88.35000000000002" y="74.58" width="50" height="50" as="geometry" />
        </mxCell>
        <mxCell id="65_ayxHNTe4NkhCTm-xJ-15" value="" style="shape=image;verticalLabelPosition=bottom;labelBackgroundColor=default;verticalAlign=top;aspect=fixed;imageAspect=0;image=https://www.ruby-lang.org/images/header-ruby-logo.png;" parent="6q-QiFSBwagRmlatzJIb-12" vertex="1">
          <mxGeometry x="197.5" y="74.58" width="50" height="50" as="geometry" />
        </mxCell>
        <mxCell id="6q-QiFSBwagRmlatzJIb-14" value="" style="group" vertex="1" connectable="0" parent="1">
          <mxGeometry x="640" y="421" width="590" height="219.19000000000005" as="geometry" />
        </mxCell>
        <mxCell id="65_ayxHNTe4NkhCTm-xJ-21" style="edgeStyle=orthogonalEdgeStyle;rounded=0;orthogonalLoop=1;jettySize=auto;html=1;exitX=0.25;exitY=1;exitDx=0;exitDy=0;" parent="6q-QiFSBwagRmlatzJIb-14" source="65_ayxHNTe4NkhCTm-xJ-16" target="65_ayxHNTe4NkhCTm-xJ-18" edge="1">
          <mxGeometry relative="1" as="geometry" />
        </mxCell>
        <mxCell id="65_ayxHNTe4NkhCTm-xJ-22" style="edgeStyle=orthogonalEdgeStyle;rounded=0;orthogonalLoop=1;jettySize=auto;html=1;exitX=0.5;exitY=1;exitDx=0;exitDy=0;entryX=0.5;entryY=0;entryDx=0;entryDy=0;" parent="6q-QiFSBwagRmlatzJIb-14" source="65_ayxHNTe4NkhCTm-xJ-16" target="65_ayxHNTe4NkhCTm-xJ-19" edge="1">
          <mxGeometry relative="1" as="geometry" />
        </mxCell>
        <mxCell id="6q-QiFSBwagRmlatzJIb-8" style="edgeStyle=orthogonalEdgeStyle;rounded=0;orthogonalLoop=1;jettySize=auto;html=1;exitX=1;exitY=0.5;exitDx=0;exitDy=0;" edge="1" parent="6q-QiFSBwagRmlatzJIb-14" source="65_ayxHNTe4NkhCTm-xJ-16" target="6q-QiFSBwagRmlatzJIb-7">
          <mxGeometry relative="1" as="geometry" />
        </mxCell>
        <mxCell id="65_ayxHNTe4NkhCTm-xJ-16" value="Device Runtimes (Drivers, Backends)&amp;nbsp;" style="rounded=1;whiteSpace=wrap;html=1;" parent="6q-QiFSBwagRmlatzJIb-14" vertex="1">
          <mxGeometry y="9" width="472" height="60" as="geometry" />
        </mxCell>
        <mxCell id="65_ayxHNTe4NkhCTm-xJ-18" value="CPU" style="sketch=0;pointerEvents=1;shadow=0;dashed=0;html=1;strokeColor=none;fillColor=#434445;aspect=fixed;labelPosition=center;verticalLabelPosition=bottom;verticalAlign=top;align=center;outlineConnect=0;shape=mxgraph.vvd.cpu;" parent="6q-QiFSBwagRmlatzJIb-14" vertex="1">
          <mxGeometry x="33" y="159.19000000000005" width="60" height="60" as="geometry" />
        </mxCell>
        <mxCell id="65_ayxHNTe4NkhCTm-xJ-19" value="GPU" style="editableCssRules=.*;html=1;shape=image;verticalLabelPosition=bottom;labelBackgroundColor=#ffffff;verticalAlign=top;aspect=fixed;imageAspect=0;image=data:image/svg+xml,PHN2ZyB4bWxucz0iaHR0cDovL3d3dy53My5vcmcvMjAwMC9zdmciIHhtbG5zOnY9Imh0dHBzOi8vdmVjdGEuaW8vbmFubyIgd2lkdGg9IjIwIiBoZWlnaHQ9IjIwIiB2aWV3Qm94PSIwIDAgMjAgMjAiPiYjeGE7CTxzdHlsZSB0eXBlPSJ0ZXh0L2NzcyI+JiN4YTsJLnN0MHtmaWxsOiM0Mjg1ZjQ7fSYjeGE7CTwvc3R5bGU+JiN4YTsJPHBhdGggY2xhc3M9InN0MCIgZD0iTTEzLjMzIDB2Mi4zOGgtMi4xNlYwSDguODN2Mi4zOEg2LjY3VjBINC4yOXYyLjM4YTIgMiAwIDAgMC0xLjkxIDEuOTFIMHYyLjM4aDIuMzh2Mi4xNEgwdjIuMzhoMi4zOHYyLjE0SDB2Mi4zOGgyLjM4YTIgMiAwIDAgMCAxLjkxIDEuOTFWMjBoMi4zOHYtMi4zOGgyLjE2VjIwaDIuMzR2LTIuMzhoMi4xNlYyMGgyLjM4di0yLjM4YTIgMiAwIDAgMCAxLjkxLTEuOTFIMjB2LTIuMzhoLTIuMzh2LTIuMTRIMjBWOC44MWgtMi4zOFY2LjY3SDIwVjQuMjloLTIuMzhhMiAyIDAgMCAwLTEuOTEtMS45MVYwem0xLjUzIDE1LjI0SDUuMTRhLjM4LjM4IDAgMCAxLS4zOC0uMzhWNS4xNGEuMzguMzggMCAwIDEgLjM4LS4zOGg5LjcyYS4zOC4zOCAwIDAgMSAuMzguMzh2OS43MmEuMzguMzggMCAwIDEtLjM4LjM4em0tMi4wNy02LjEybC0zLjUgNC44NnYtMy42M0g3LjIybDMuNjEtNC44MXYzLjU4eiIvPiYjeGE7PC9zdmc+;" parent="6q-QiFSBwagRmlatzJIb-14" vertex="1">
          <mxGeometry x="206" y="159" width="60" height="60" as="geometry" />
        </mxCell>
        <mxCell id="65_ayxHNTe4NkhCTm-xJ-20" value="FPGA" style="points=[];aspect=fixed;html=1;align=center;shadow=0;dashed=0;fillColor=#FF6A00;strokeColor=none;shape=mxgraph.alibaba_cloud.fpga_field_programmable_gate_array;labelPosition=center;verticalLabelPosition=bottom;verticalAlign=top;" parent="6q-QiFSBwagRmlatzJIb-14" vertex="1">
          <mxGeometry x="387.4000000000001" y="159.19499999999994" width="60" height="59.61" as="geometry" />
        </mxCell>
        <mxCell id="65_ayxHNTe4NkhCTm-xJ-23" style="edgeStyle=orthogonalEdgeStyle;rounded=0;orthogonalLoop=1;jettySize=auto;html=1;exitX=0.75;exitY=1;exitDx=0;exitDy=0;entryX=0.51;entryY=0.064;entryDx=0;entryDy=0;entryPerimeter=0;" parent="6q-QiFSBwagRmlatzJIb-14" source="65_ayxHNTe4NkhCTm-xJ-16" target="65_ayxHNTe4NkhCTm-xJ-20" edge="1">
          <mxGeometry relative="1" as="geometry" />
        </mxCell>
        <mxCell id="6q-QiFSBwagRmlatzJIb-7" value="native device code" style="sketch=0;outlineConnect=0;fontColor=#232F3E;gradientColor=none;fillColor=#232F3D;strokeColor=none;dashed=0;verticalLabelPosition=bottom;verticalAlign=top;align=center;html=1;fontSize=12;fontStyle=0;aspect=fixed;pointerEvents=1;shape=mxgraph.aws4.source_code;" vertex="1" parent="6q-QiFSBwagRmlatzJIb-14">
          <mxGeometry x="533" width="57" height="78" as="geometry" />
        </mxCell>
        <mxCell id="6q-QiFSBwagRmlatzJIb-26" value="" style="group" vertex="1" connectable="0" parent="1">
          <mxGeometry x="88" y="345" width="470" height="230" as="geometry" />
        </mxCell>
        <mxCell id="65_ayxHNTe4NkhCTm-xJ-2" value="JVM" style="rounded=1;whiteSpace=wrap;html=1;align=left;spacingLeft=15;verticalAlign=bottom;" parent="6q-QiFSBwagRmlatzJIb-26" vertex="1">
          <mxGeometry width="470" height="230" as="geometry" />
        </mxCell>
        <mxCell id="6q-QiFSBwagRmlatzJIb-1" value="TornadoVM" style="rounded=1;whiteSpace=wrap;html=1;verticalAlign=bottom;align=left;spacingLeft=15;" vertex="1" parent="6q-QiFSBwagRmlatzJIb-26">
          <mxGeometry x="92" y="10" width="370" height="210" as="geometry" />
        </mxCell>
        <mxCell id="6q-QiFSBwagRmlatzJIb-25" style="edgeStyle=orthogonalEdgeStyle;rounded=0;orthogonalLoop=1;jettySize=auto;html=1;exitX=0.5;exitY=1;exitDx=0;exitDy=0;entryX=0.5;entryY=0;entryDx=0;entryDy=0;" edge="1" parent="6q-QiFSBwagRmlatzJIb-26" source="6q-QiFSBwagRmlatzJIb-4" target="6q-QiFSBwagRmlatzJIb-5">
          <mxGeometry relative="1" as="geometry" />
        </mxCell>
        <mxCell id="6q-QiFSBwagRmlatzJIb-4" value="Runtime" style="rounded=1;whiteSpace=wrap;html=1;" vertex="1" parent="6q-QiFSBwagRmlatzJIb-26">
          <mxGeometry x="175" y="26" width="120" height="60" as="geometry" />
        </mxCell>
        <mxCell id="6q-QiFSBwagRmlatzJIb-5" value="Interpreter and JIT Compiler" style="rounded=1;whiteSpace=wrap;html=1;" vertex="1" parent="6q-QiFSBwagRmlatzJIb-26">
          <mxGeometry x="175" y="141" width="120" height="60" as="geometry" />
        </mxCell>
        <mxCell id="6q-QiFSBwagRmlatzJIb-15" value="Optimized Bytecode" style="verticalLabelPosition=middle;html=1;verticalAlign=middle;align=left;strokeColor=none;fillColor=#00BEF2;shape=mxgraph.azure.code_file;pointerEvents=1;labelPosition=right;whiteSpace=wrap;" vertex="1" parent="6q-QiFSBwagRmlatzJIb-26">
          <mxGeometry x="352.25" y="31" width="47.5" height="50" as="geometry" />
        </mxCell>
        <mxCell id="6q-QiFSBwagRmlatzJIb-16" style="edgeStyle=orthogonalEdgeStyle;rounded=0;orthogonalLoop=1;jettySize=auto;html=1;exitX=1;exitY=0.5;exitDx=0;exitDy=0;entryX=0;entryY=0.5;entryDx=0;entryDy=0;entryPerimeter=0;" edge="1" parent="6q-QiFSBwagRmlatzJIb-26" source="6q-QiFSBwagRmlatzJIb-4" target="6q-QiFSBwagRmlatzJIb-15">
          <mxGeometry relative="1" as="geometry" />
        </mxCell>
        <mxCell id="6q-QiFSBwagRmlatzJIb-17" value="Device code" style="verticalLabelPosition=middle;html=1;verticalAlign=middle;align=left;strokeColor=none;fillColor=#00BEF2;shape=mxgraph.azure.code_file;pointerEvents=1;labelPosition=right;whiteSpace=wrap;" vertex="1" parent="6q-QiFSBwagRmlatzJIb-26">
          <mxGeometry x="352.25" y="146" width="47.5" height="50" as="geometry" />
        </mxCell>
        <mxCell id="6q-QiFSBwagRmlatzJIb-22" style="edgeStyle=orthogonalEdgeStyle;rounded=0;orthogonalLoop=1;jettySize=auto;html=1;exitX=1;exitY=0.5;exitDx=0;exitDy=0;entryX=0;entryY=0.5;entryDx=0;entryDy=0;entryPerimeter=0;" edge="1" parent="6q-QiFSBwagRmlatzJIb-26" source="6q-QiFSBwagRmlatzJIb-5" target="6q-QiFSBwagRmlatzJIb-17">
          <mxGeometry relative="1" as="geometry" />
        </mxCell>
      </root>
    </mxGraphModel>
  </diagram>
</mxfile>
